<?xml version="1.0" standalone="yes"?>

<svg version="1.1" viewBox="0.0 0.0 664.0 213.0" fill="none" stroke="none" stroke-linecap="square" stroke-miterlimit="10" xmlns="http://www.w3.org/2000/svg" xmlns:xlink="http://www.w3.org/1999/xlink"><clipPath id="p.0"><path d="m0 0l664.0 0l0 213.0l-664.0 0l0 -213.0z" clip-rule="nonzero"></path></clipPath><g clip-path="url(#p.0)"><path fill="#000000" fill-opacity="0.0" d="m0 0l664.10236 0l0 213.86351l-664.10236 0z" fill-rule="nonzero"></path><path fill="#000000" fill-opacity="0.0" d="m256.0 60.00056l0 0c0 -15.464283 12.536285 -28.00056 28.00055 -28.00056l151.99887 0c7.4262085 0 14.548279 2.9500504 19.799408 8.201176c5.2510986 5.2511215 8.201172 12.373173 8.201172 19.799385l0 111.99887c0 15.464279 -12.536285 28.000565 -28.00058 28.000565l-151.99887 0l0 0c-15.464264 0 -28.00055 -12.536285 -28.00055 -28.000565z" fill-rule="nonzero"></path><path stroke="#000000" stroke-width="1.0" stroke-linejoin="round" stroke-linecap="butt" stroke-dasharray="4.0,3.0" d="m256.0 60.00056l0 0c0 -15.464283 12.536285 -28.00056 28.00055 -28.00056l151.99887 0c7.4262085 0 14.548279 2.9500504 19.799408 8.201176c5.2510986 5.2511215 8.201172 12.373173 8.201172 19.799385l0 111.99887c0 15.464279 -12.536285 28.000565 -28.00058 28.000565l-151.99887 0l0 0c-15.464264 0 -28.00055 -12.536285 -28.00055 -28.000565z" fill-rule="nonzero"></path><path fill="#d9ead3" d="m160.0 68.53937l20.0 -19.999996l0 10.0l304.0 0l0 -10.0l20.0 19.999996l-20.0 20.0l0 -10.0l-304.0 0l0 10.0z" fill-rule="nonzero"></path><path stroke="#000000" stroke-width="1.0" stroke-linejoin="round" stroke-linecap="butt" d="m160.0 68.53937l20.0 -19.999996l0 10.0l304.0 0l0 -10.0l20.0 19.999996l-20.0 20.0l0 -10.0l-304.0 0l0 10.0z" fill-rule="nonzero"></path><path fill="#000000" d="m187.26535 73.33937l0 -9.3125l1.140625 0l0 3.34375q0.796875 -0.921875 2.015625 -0.921875q0.75 0 1.296875 0.296875q0.5625 0.296875 0.796875 0.8125q0.234375 0.515625 0.234375 1.515625l0 4.265625l-1.140625 0l0 -4.265625q0 -0.859375 -0.375 -1.25q-0.359375 -0.390625 -1.046875 -0.390625q-0.5 0 -0.953125 0.265625q-0.453125 0.25 -0.640625 0.703125q-0.1875 0.453125 -0.1875 1.25l0 3.6875l-1.140625 0zm8.646851 0l-2.0625 -6.734375l1.1875 0l1.078125 3.890625l0.390625 1.4375q0.03125 -0.109375 0.359375 -1.390625l1.0625 -3.9375l1.171875 0l1.015625 3.90625l0.34375 1.28125l0.375 -1.296875l1.15625 -3.890625l1.109375 0l-2.109375 6.734375l-1.171875 0l-1.078125 -4.03125l-0.265625 -1.15625l-1.359375 5.1875l-1.203125 0zm7.3282776 2.578125l0 -0.8125l7.578125 0l0 0.8125l-7.578125 0zm9.131226 -2.578125l0 -1.296875l1.296875 0l0 1.296875l-1.296875 0zm4.34375 0l0 -1.296875l1.296875 0l0 1.296875l-1.296875 0zm4.328125 0l0 -1.296875l1.296875 0l0 1.296875l-1.296875 0zm6.1875 2.734375q-0.953125 -1.1875 -1.609375 -2.78125q-0.65625 -1.609375 -0.65625 -3.328125q0 -1.5 0.5 -2.890625q0.5625 -1.609375 1.765625 -3.203125l0.8125 0q-0.765625 1.328125 -1.015625 1.890625q-0.390625 0.875 -0.609375 1.828125q-0.265625 1.1875 -0.265625 2.390625q0 3.046875 1.890625 6.09375l-0.8125 0zm2.5789948 -2.734375l0 -1.296875l1.296875 0l0 1.296875l-1.296875 0zm3.7029877 0l0 -1.296875l1.296875 0l0 1.296875l-1.296875 0zm3.7029877 0l0 -1.296875l1.296875 0l0 1.296875l-1.296875 0zm4.1248627 2.734375l-0.828125 0q1.90625 -3.046875 1.90625 -6.09375q0 -1.203125 -0.28125 -2.375q-0.203125 -0.953125 -0.59375 -1.828125q-0.25 -0.5625 -1.03125 -1.90625l0.828125 0q1.1875 1.59375 1.765625 3.203125q0.484375 1.390625 0.484375 2.890625q0 1.71875 -0.65625 3.328125q-0.65625 1.59375 -1.59375 2.78125z" fill-rule="nonzero"></path><path fill="#000000" fill-opacity="0.0" d="m280.0 8.0l160.0 0l0 24.0l-160.0 0z" fill-rule="nonzero"></path><path fill="#000000" d="m339.75305 26.919998l0 -13.59375l1.8125 0l0 5.578125l7.0625 0l0 -5.578125l1.796875 0l0 13.59375l-1.796875 0l0 -6.40625l-7.0625 0l0 6.40625l-1.8125 0zm15.801056 0l-3.609375 -13.59375l1.84375 0l2.0625 8.90625q0.34375 1.40625 0.578125 2.78125q0.515625 -2.171875 0.609375 -2.515625l2.59375 -9.171875l2.171875 0l1.953125 6.875q0.734375 2.5625 1.046875 4.8125q0.265625 -1.28125 0.6875 -2.953125l2.125 -8.734375l1.8125 0l-3.734375 13.59375l-1.734375 0l-2.859375 -10.359375q-0.359375 -1.296875 -0.421875 -1.59375q-0.21875 0.9375 -0.40625 1.59375l-2.890625 10.359375l-1.828125 0zm13.733673 0l5.234375 -13.59375l1.9375 0l5.5625 13.59375l-2.046875 0l-1.59375 -4.125l-5.6875 0l-1.484375 4.125l-1.921875 0zm3.921875 -5.578125l4.609375 0l-1.40625 -3.78125q-0.65625 -1.703125 -0.96875 -2.8125q-0.265625 1.3125 -0.734375 2.59375l-1.5 4.0z" fill-rule="nonzero"></path><path fill="#000000" fill-opacity="0.0" d="m256.0 104.53937l208.0 0" fill-rule="nonzero"></path><path stroke="#000000" stroke-width="1.0" stroke-linejoin="round" stroke-linecap="butt" stroke-dasharray="4.0,3.0" d="m256.0 104.53937l208.0 0" fill-rule="nonzero"></path><path fill="#000000" fill-opacity="0.0" d="m256.0 80.53937l104.0 0l0 24.0l-104.0 0z" fill-rule="nonzero"></path><path fill="#000000" d="m265.92188 94.323746l1.21875 -0.109375l-0.015625 0.328125q0 0.53125 0.234375 0.984375q0.25 0.453125 0.828125 0.703125q0.578125 0.234375 1.359375 0.234375q1.109375 0 1.703125 -0.484375q0.59375 -0.5 0.59375 -1.125q0 -0.4375 -0.3125 -0.796875q-0.328125 -0.359375 -1.734375 -0.96875q-1.109375 -0.46875 -1.5 -0.734375q-0.625 -0.40625 -0.9375 -0.890625q-0.296875 -0.484375 -0.296875 -1.109375q0 -0.71875 0.390625 -1.296875q0.40625 -0.578125 1.15625 -0.875q0.765625 -0.3125 1.71875 -0.3125q1.140625 0 1.921875 0.390625q0.78125 0.375 1.125 1.015625q0.359375 0.625 0.359375 1.203125q0 0.0625 -0.015625 0.1875l-1.203125 0.109375q0 -0.40625 -0.0625 -0.625q-0.125 -0.390625 -0.390625 -0.65625q-0.265625 -0.265625 -0.734375 -0.421875q-0.46875 -0.171875 -1.046875 -0.171875q-1.015625 0 -1.578125 0.46875q-0.4375 0.34375 -0.4375 0.921875q0 0.34375 0.171875 0.625q0.1875 0.265625 0.65625 0.515625q0.328125 0.1875 1.5625 0.734375q1.0 0.4375 1.390625 0.703125q0.5 0.328125 0.765625 0.8125q0.28125 0.46875 0.28125 1.078125q0 0.765625 -0.46875 1.40625q-0.453125 0.625 -1.265625 0.984375q-0.8125 0.34375 -1.859375 0.34375q-1.578125 0 -2.578125 -0.6875q-1.0 -0.6875 -1.0 -2.484375zm7.9678955 5.625l0.0625 -1.078125q0.359375 0.09375 0.703125 0.09375q0.34375 0 0.5625 -0.15625q0.28125 -0.21875 0.609375 -0.796875l0.359375 -0.65625l-1.109375 -6.75l1.125 0l0.5 3.40625q0.15625 1.0 0.265625 2.015625l3.015625 -5.421875l1.203125 0l-4.296875 7.625q-0.625 1.125 -1.109375 1.484375q-0.484375 0.359375 -1.109375 0.359375q-0.40625 0 -0.78125 -0.125zm7.1015625 -2.609375l1.40625 -6.734375l1.03125 0l-0.234375 1.171875q0.671875 -0.703125 1.265625 -1.015625q0.59375 -0.3125 1.203125 -0.3125q0.8125 0 1.28125 0.453125q0.46875 0.4375 0.46875 1.171875q0 0.375 -0.15625 1.1875l-0.859375 4.078125l-1.15625 0l0.90625 -4.265625q0.125 -0.625 0.125 -0.921875q0 -0.34375 -0.234375 -0.546875q-0.234375 -0.21875 -0.671875 -0.21875q-0.875 0 -1.5625 0.640625q-0.6875 0.640625 -1.015625 2.171875l-0.65625 3.140625l-1.140625 0zm12.053101 -2.453125l1.15625 0.109375q-0.4375 1.265625 -1.234375 1.890625q-0.796875 0.609375 -1.8125 0.609375q-1.09375 0 -1.78125 -0.703125q-0.671875 -0.71875 -0.671875 -2.0q0 -1.109375 0.4375 -2.171875q0.4375 -1.0625 1.25 -1.609375q0.8125 -0.5625 1.859375 -0.5625q1.09375 0 1.71875 0.609375q0.640625 0.609375 0.640625 1.625l-1.125 0.078125q-0.015625 -0.640625 -0.375 -1.0q-0.359375 -0.375 -0.96875 -0.375q-0.6875 0 -1.203125 0.4375q-0.5 0.4375 -0.796875 1.34375q-0.28125 0.890625 -0.28125 1.703125q0 0.875 0.375 1.3125q0.390625 0.421875 0.953125 0.421875q0.546875 0 1.0625 -0.421875q0.515625 -0.4375 0.796875 -1.296875zm2.0234375 2.453125l1.9375 -9.3125l1.140625 0l-0.734375 3.578125q0.640625 -0.625 1.1875 -0.890625q0.5625 -0.265625 1.140625 -0.265625q0.84375 0 1.296875 0.4375q0.46875 0.4375 0.46875 1.171875q0 0.34375 -0.203125 1.296875l-0.828125 3.984375l-1.15625 0l0.859375 -4.078125q0.1875 -0.890625 0.1875 -1.125q0 -0.328125 -0.234375 -0.53125q-0.21875 -0.21875 -0.65625 -0.21875q-0.625 0 -1.1875 0.328125q-0.5625 0.328125 -0.890625 0.90625q-0.3125 0.5625 -0.578125 1.828125l-0.609375 2.890625l-1.140625 0zm7.4124756 0l1.40625 -6.734375l1.015625 0l-0.28125 1.375q0.515625 -0.78125 1.015625 -1.15625q0.5 -0.375 1.015625 -0.375q0.34375 0 0.84375 0.25l-0.46875 1.0625q-0.296875 -0.21875 -0.65625 -0.21875q-0.609375 0 -1.25 0.671875q-0.625 0.671875 -0.984375 2.421875l-0.5625 2.703125l-1.09375 0zm4.6414795 -2.5625q0 -1.96875 1.15625 -3.265625q0.953125 -1.0625 2.515625 -1.0625q1.21875 0 1.953125 0.765625q0.75 0.75 0.75 2.046875q0 1.171875 -0.46875 2.171875q-0.46875 0.984375 -1.34375 1.53125q-0.859375 0.53125 -1.8125 0.53125q-0.78125 0 -1.4375 -0.328125q-0.640625 -0.34375 -0.984375 -0.953125q-0.328125 -0.625 -0.328125 -1.4375zm1.140625 -0.109375q0 0.953125 0.453125 1.453125q0.46875 0.484375 1.171875 0.484375q0.359375 0 0.71875 -0.140625q0.375 -0.15625 0.671875 -0.453125q0.3125 -0.3125 0.53125 -0.703125q0.21875 -0.390625 0.359375 -0.84375q0.203125 -0.625 0.203125 -1.203125q0 -0.921875 -0.46875 -1.421875q-0.453125 -0.5 -1.15625 -0.5q-0.546875 0 -0.984375 0.265625q-0.4375 0.25 -0.796875 0.75q-0.359375 0.484375 -0.53125 1.140625q-0.171875 0.65625 -0.171875 1.171875zm6.0687256 2.671875l1.40625 -6.734375l1.03125 0l-0.234375 1.171875q0.671875 -0.703125 1.265625 -1.015625q0.59375 -0.3125 1.203125 -0.3125q0.8125 0 1.28125 0.453125q0.46875 0.4375 0.46875 1.171875q0 0.375 -0.15625 1.1875l-0.859375 4.078125l-1.15625 0l0.90625 -4.265625q0.125 -0.625 0.125 -0.921875q0 -0.34375 -0.234375 -0.546875q-0.234375 -0.21875 -0.671875 -0.21875q-0.875 0 -1.5625 0.640625q-0.6875 0.640625 -1.015625 2.171875l-0.65625 3.140625l-1.140625 0zm7.6156006 -2.5625q0 -1.96875 1.15625 -3.265625q0.953125 -1.0625 2.515625 -1.0625q1.21875 0 1.953125 0.765625q0.75 0.75 0.75 2.046875q0 1.171875 -0.46875 2.171875q-0.46875 0.984375 -1.34375 1.53125q-0.859375 0.53125 -1.8125 0.53125q-0.78125 0 -1.4375 -0.328125q-0.640625 -0.34375 -0.984375 -0.953125q-0.328125 -0.625 -0.328125 -1.4375zm1.140625 -0.109375q0 0.953125 0.453125 1.453125q0.46875 0.484375 1.171875 0.484375q0.359375 0 0.71875 -0.140625q0.375 -0.15625 0.671875 -0.453125q0.3125 -0.3125 0.53125 -0.703125q0.21875 -0.390625 0.359375 -0.84375q0.203125 -0.625 0.203125 -1.203125q0 -0.921875 -0.46875 -1.421875q-0.453125 -0.5 -1.15625 -0.5q-0.546875 0 -0.984375 0.265625q-0.4375 0.25 -0.796875 0.75q-0.359375 0.484375 -0.53125 1.140625q-0.171875 0.65625 -0.171875 1.171875zm10.662476 1.453125q-1.203125 1.375 -2.484375 1.375q-0.78125 0 -1.265625 -0.453125q-0.46875 -0.453125 -0.46875 -1.09375q0 -0.421875 0.21875 -1.453125l0.8125 -3.890625l1.140625 0l-0.890625 4.296875q-0.125 0.546875 -0.125 0.84375q0 0.375 0.234375 0.59375q0.234375 0.21875 0.6875 0.21875q0.484375 0 0.9375 -0.234375q0.46875 -0.234375 0.796875 -0.640625q0.328125 -0.40625 0.546875 -0.953125q0.140625 -0.34375 0.3125 -1.21875l0.609375 -2.90625l1.15625 0l-1.40625 6.734375l-1.0625 0l0.25 -1.21875zm2.9281006 -1.078125l1.140625 -0.078125q0 0.5 0.15625 0.84375q0.15625 0.34375 0.5625 0.578125q0.40625 0.21875 0.953125 0.21875q0.765625 0 1.140625 -0.296875q0.375 -0.3125 0.375 -0.734375q0 -0.296875 -0.21875 -0.5625q-0.234375 -0.265625 -1.15625 -0.65625q-0.90625 -0.390625 -1.15625 -0.546875q-0.421875 -0.265625 -0.640625 -0.609375q-0.21875 -0.359375 -0.21875 -0.8125q0 -0.796875 0.625 -1.359375q0.640625 -0.578125 1.78125 -0.578125q1.28125 0 1.9375 0.59375q0.671875 0.578125 0.6875 1.53125l-1.125 0.078125q-0.015625 -0.609375 -0.421875 -0.953125q-0.40625 -0.359375 -1.15625 -0.359375q-0.59375 0 -0.921875 0.28125q-0.328125 0.265625 -0.328125 0.578125q0 0.3125 0.28125 0.5625q0.1875 0.15625 0.984375 0.5q1.3125 0.578125 1.65625 0.90625q0.546875 0.53125 0.546875 1.28125q0 0.5 -0.3125 0.984375q-0.296875 0.484375 -0.9375 0.78125q-0.625 0.28125 -1.484375 0.28125q-1.15625 0 -1.984375 -0.578125q-0.8125 -0.578125 -0.765625 -1.875z" fill-rule="nonzero"></path><path fill="#000000" fill-opacity="0.0" d="m360.0 104.53937l104.0 0l0 24.0l-104.0 0z" fill-rule="nonzero"></path><path fill="#000000" d="m370.27515 121.33937l5.28125 -9.3125l1.46875 0l1.53125 9.3125l-1.203125 0l-0.453125 -2.671875l-3.765625 0l-1.484375 2.671875l-1.375 0zm3.390625 -3.640625l3.078125 0l-0.359375 -2.328125q-0.203125 -1.390625 -0.25 -2.328125q-0.328125 0.8125 -0.9375 1.90625l-1.53125 2.75zm6.311615 1.34375l1.140625 -0.078125q0 0.5 0.15625 0.84375q0.15625 0.34375 0.5625 0.578125q0.40625 0.21875 0.953125 0.21875q0.765625 0 1.140625 -0.296875q0.375 -0.3125 0.375 -0.734375q0 -0.296875 -0.21875 -0.5625q-0.234375 -0.265625 -1.15625 -0.65625q-0.90625 -0.390625 -1.15625 -0.546875q-0.421875 -0.265625 -0.640625 -0.609375q-0.21875 -0.359375 -0.21875 -0.8125q0 -0.796875 0.625 -1.359375q0.640625 -0.578125 1.78125 -0.578125q1.28125 0 1.9375 0.59375q0.671875 0.578125 0.6875 1.53125l-1.125 0.078125q-0.015625 -0.609375 -0.421875 -0.953125q-0.40625 -0.359375 -1.15625 -0.359375q-0.59375 0 -0.921875 0.28125q-0.328125 0.265625 -0.328125 0.578125q0 0.3125 0.28125 0.5625q0.1875 0.15625 0.984375 0.5q1.3125 0.578125 1.65625 0.90625q0.546875 0.53125 0.546875 1.28125q0 0.5 -0.3125 0.984375q-0.296875 0.484375 -0.9375 0.78125q-0.625 0.28125 -1.484375 0.28125q-1.15625 0 -1.984375 -0.578125q-0.8125 -0.578125 -0.765625 -1.875zm6.1171875 4.90625l0.0625 -1.078125q0.359375 0.09375 0.703125 0.09375q0.34375 0 0.5625 -0.15625q0.28125 -0.21875 0.609375 -0.796875l0.359375 -0.65625l-1.109375 -6.75l1.125 0l0.5 3.40625q0.15625 1.0 0.265625 2.015625l3.015625 -5.421875l1.203125 0l-4.296875 7.625q-0.625 1.125 -1.109375 1.484375q-0.484375 0.359375 -1.109375 0.359375q-0.40625 0 -0.78125 -0.125zm7.1015625 -2.609375l1.40625 -6.734375l1.03125 0l-0.234375 1.171875q0.671875 -0.703125 1.265625 -1.015625q0.59375 -0.3125 1.203125 -0.3125q0.8125 0 1.28125 0.453125q0.46875 0.4375 0.46875 1.171875q0 0.375 -0.15625 1.1875l-0.859375 4.078125l-1.15625 0l0.90625 -4.265625q0.125 -0.625 0.125 -0.921875q0 -0.34375 -0.234375 -0.546875q-0.234375 -0.21875 -0.671875 -0.21875q-0.875 0 -1.5625 0.640625q-0.6875 0.640625 -1.015625 2.171875l-0.65625 3.140625l-1.140625 0zm12.053101 -2.453125l1.15625 0.109375q-0.4375 1.265625 -1.234375 1.890625q-0.796875 0.609375 -1.8125 0.609375q-1.09375 0 -1.78125 -0.703125q-0.671875 -0.71875 -0.671875 -2.0q0 -1.109375 0.4375 -2.171875q0.4375 -1.0625 1.25 -1.609375q0.8125 -0.5625 1.859375 -0.5625q1.09375 0 1.71875 0.609375q0.640625 0.609375 0.640625 1.625l-1.125 0.078125q-0.015625 -0.640625 -0.375 -1.0q-0.359375 -0.375 -0.96875 -0.375q-0.6875 0 -1.203125 0.4375q-0.5 0.4375 -0.796875 1.34375q-0.28125 0.890625 -0.28125 1.703125q0 0.875 0.375 1.3125q0.390625 0.421875 0.953125 0.421875q0.546875 0 1.0625 -0.421875q0.515625 -0.4375 0.796875 -1.296875zm2.0234375 2.453125l1.9375 -9.3125l1.140625 0l-0.734375 3.578125q0.640625 -0.625 1.1875 -0.890625q0.5625 -0.265625 1.140625 -0.265625q0.84375 0 1.296875 0.4375q0.46875 0.4375 0.46875 1.171875q0 0.34375 -0.203125 1.296875l-0.828125 3.984375l-1.15625 0l0.859375 -4.078125q0.1875 -0.890625 0.1875 -1.125q0 -0.328125 -0.234375 -0.53125q-0.21875 -0.21875 -0.65625 -0.21875q-0.625 0 -1.1875 0.328125q-0.5625 0.328125 -0.890625 0.90625q-0.3125 0.5625 -0.578125 1.828125l-0.609375 2.890625l-1.140625 0zm7.4124756 0l1.40625 -6.734375l1.015625 0l-0.28125 1.375q0.515625 -0.78125 1.015625 -1.15625q0.5 -0.375 1.015625 -0.375q0.34375 0 0.84375 0.25l-0.46875 1.0625q-0.296875 -0.21875 -0.65625 -0.21875q-0.609375 0 -1.25 0.671875q-0.625 0.671875 -0.984375 2.421875l-0.5625 2.703125l-1.09375 0zm4.64151 -2.5625q0 -1.96875 1.15625 -3.265625q0.953125 -1.0625 2.515625 -1.0625q1.21875 0 1.953125 0.765625q0.75 0.75 0.75 2.046875q0 1.171875 -0.46875 2.171875q-0.46875 0.984375 -1.34375 1.53125q-0.859375 0.53125 -1.8125 0.53125q-0.78125 0 -1.4375 -0.328125q-0.640625 -0.34375 -0.984375 -0.953125q-0.328125 -0.625 -0.328125 -1.4375zm1.140625 -0.109375q0 0.953125 0.453125 1.453125q0.46875 0.484375 1.171875 0.484375q0.359375 0 0.71875 -0.140625q0.375 -0.15625 0.671875 -0.453125q0.3125 -0.3125 0.53125 -0.703125q0.21875 -0.390625 0.359375 -0.84375q0.203125 -0.625 0.203125 -1.203125q0 -0.921875 -0.46875 -1.421875q-0.453125 -0.5 -1.15625 -0.5q-0.546875 0 -0.984375 0.265625q-0.4375 0.25 -0.796875 0.75q-0.359375 0.484375 -0.53125 1.140625q-0.171875 0.65625 -0.171875 1.171875zm6.0687256 2.671875l1.40625 -6.734375l1.03125 0l-0.234375 1.171875q0.671875 -0.703125 1.265625 -1.015625q0.59375 -0.3125 1.203125 -0.3125q0.8125 0 1.28125 0.453125q0.46875 0.4375 0.46875 1.171875q0 0.375 -0.15625 1.1875l-0.859375 4.078125l-1.15625 0l0.90625 -4.265625q0.125 -0.625 0.125 -0.921875q0 -0.34375 -0.234375 -0.546875q-0.234375 -0.21875 -0.671875 -0.21875q-0.875 0 -1.5625 0.640625q-0.6875 0.640625 -1.015625 2.171875l-0.65625 3.140625l-1.140625 0zm7.6156006 -2.5625q0 -1.96875 1.15625 -3.265625q0.953125 -1.0625 2.515625 -1.0625q1.21875 0 1.953125 0.765625q0.75 0.75 0.75 2.046875q0 1.171875 -0.46875 2.171875q-0.46875 0.984375 -1.34375 1.53125q-0.859375 0.53125 -1.8125 0.53125q-0.78125 0 -1.4375 -0.328125q-0.640625 -0.34375 -0.984375 -0.953125q-0.328125 -0.625 -0.328125 -1.4375zm1.140625 -0.109375q0 0.953125 0.453125 1.453125q0.46875 0.484375 1.171875 0.484375q0.359375 0 0.71875 -0.140625q0.375 -0.15625 0.671875 -0.453125q0.3125 -0.3125 0.53125 -0.703125q0.21875 -0.390625 0.359375 -0.84375q0.203125 -0.625 0.203125 -1.203125q0 -0.921875 -0.46875 -1.421875q-0.453125 -0.5 -1.15625 -0.5q-0.546875 0 -0.984375 0.265625q-0.4375 0.25 -0.796875 0.75q-0.359375 0.484375 -0.53125 1.140625q-0.171875 0.65625 -0.171875 1.171875zm10.662476 1.453125q-1.203125 1.375 -2.484375 1.375q-0.78125 0 -1.265625 -0.453125q-0.46875 -0.453125 -0.46875 -1.09375q0 -0.421875 0.21875 -1.453125l0.8125 -3.890625l1.140625 0l-0.890625 4.296875q-0.125 0.546875 -0.125 0.84375q0 0.375 0.234375 0.59375q0.234375 0.21875 0.6875 0.21875q0.484375 0 0.9375 -0.234375q0.46875 -0.234375 0.796875 -0.640625q0.328125 -0.40625 0.546875 -0.953125q0.140625 -0.34375 0.3125 -1.21875l0.609375 -2.90625l1.15625 0l-1.40625 6.734375l-1.0625 0l0.25 -1.21875zm2.9281006 -1.078125l1.140625 -0.078125q0 0.5 0.15625 0.84375q0.15625 0.34375 0.5625 0.578125q0.40625 0.21875 0.953125 0.21875q0.765625 0 1.140625 -0.296875q0.375 -0.3125 0.375 -0.734375q0 -0.296875 -0.21875 -0.5625q-0.234375 -0.265625 -1.15625 -0.65625q-0.90625 -0.390625 -1.15625 -0.546875q-0.421875 -0.265625 -0.640625 -0.609375q-0.21875 -0.359375 -0.21875 -0.8125q0 -0.796875 0.625 -1.359375q0.640625 -0.578125 1.78125 -0.578125q1.28125 0 1.9375 0.59375q0.671875 0.578125 0.6875 1.53125l-1.125 0.078125q-0.015625 -0.609375 -0.421875 -0.953125q-0.40625 -0.359375 -1.15625 -0.359375q-0.59375 0 -0.921875 0.28125q-0.328125 0.265625 -0.328125 0.578125q0 0.3125 0.28125 0.5625q0.1875 0.15625 0.984375 0.5q1.3125 0.578125 1.65625 0.90625q0.546875 0.53125 0.546875 1.28125q0 0.5 -0.3125 0.984375q-0.296875 0.484375 -0.9375 0.78125q-0.625 0.28125 -1.484375 0.28125q-1.15625 0 -1.984375 -0.578125q-0.8125 -0.578125 -0.765625 -1.875z" fill-rule="nonzero"></path><path fill="#ffffff" d="m424.0 146.53937l60.0 0l0 -10.0l20.0 20.0l-20.0 20.0l0 -10.0l-60.0 0z" fill-rule="nonzero"></path><path stroke="#000000" stroke-width="1.0" stroke-linejoin="round" stroke-linecap="butt" d="m424.0 146.53937l60.0 0l0 -10.0l20.0 20.0l-20.0 20.0l0 -10.0l-60.0 0z" fill-rule="nonzero"></path><path fill="#d0e0e3" d="m160.0 146.53937l116.0 0l0 -10.0l20.0 20.0l-20.0 20.0l0 -10.0l-116.0 0z" fill-rule="nonzero"></path><path stroke="#000000" stroke-width="1.0" stroke-linejoin="round" stroke-linecap="butt" d="m160.0 146.53937l116.0 0l0 -10.0l20.0 20.0l-20.0 20.0l0 -10.0l-116.0 0z" fill-rule="nonzero"></path><path fill="#000000" d="m177.26535 161.33937l0 -9.3125l1.140625 0l0 3.34375q0.796875 -0.921875 2.015625 -0.921875q0.75 0 1.296875 0.296875q0.5625 0.296875 0.796875 0.8125q0.234375 0.515625 0.234375 1.515625l0 4.265625l-1.140625 0l0 -4.265625q0 -0.859375 -0.375 -1.25q-0.359375 -0.390625 -1.046875 -0.390625q-0.5 0 -0.953125 0.265625q-0.453125 0.25 -0.640625 0.703125q-0.1875 0.453125 -0.1875 1.25l0 3.6875l-1.140625 0zm8.646851 0l-2.0625 -6.734375l1.1875 0l1.078125 3.890625l0.390625 1.4375q0.03125 -0.109375 0.359375 -1.390625l1.0625 -3.9375l1.171875 0l1.015625 3.90625l0.34375 1.28125l0.375 -1.296875l1.15625 -3.890625l1.109375 0l-2.109375 6.734375l-1.171875 0l-1.078125 -4.03125l-0.265625 -1.15625l-1.359375 5.1875l-1.203125 0zm12.781403 -0.828125q-0.625 0.53125 -1.21875 0.765625q-0.578125 0.21875 -1.25 0.21875q-1.125 0 -1.71875 -0.546875q-0.59375 -0.546875 -0.59375 -1.390625q0 -0.484375 0.21875 -0.890625q0.234375 -0.421875 0.59375 -0.671875q0.375 -0.25 0.828125 -0.375q0.328125 -0.078125 1.015625 -0.171875q1.375 -0.15625 2.03125 -0.390625q0.015625 -0.234375 0.015625 -0.296875q0 -0.703125 -0.328125 -0.984375q-0.4375 -0.390625 -1.296875 -0.390625q-0.8125 0 -1.203125 0.28125q-0.375 0.28125 -0.5625 1.0l-1.109375 -0.140625q0.140625 -0.71875 0.484375 -1.15625q0.359375 -0.453125 1.015625 -0.6875q0.671875 -0.234375 1.53125 -0.234375q0.875 0 1.40625 0.203125q0.546875 0.203125 0.796875 0.515625q0.25 0.296875 0.359375 0.765625q0.046875 0.296875 0.046875 1.0625l0 1.515625q0 1.59375 0.078125 2.015625q0.078125 0.421875 0.28125 0.8125l-1.1875 0q-0.171875 -0.359375 -0.234375 -0.828125zm-0.09375 -2.5625q-0.625 0.265625 -1.859375 0.4375q-0.703125 0.109375 -1.0 0.234375q-0.296875 0.125 -0.453125 0.375q-0.15625 0.234375 -0.15625 0.53125q0 0.453125 0.34375 0.765625q0.34375 0.296875 1.015625 0.296875q0.65625 0 1.171875 -0.28125q0.515625 -0.296875 0.765625 -0.796875q0.171875 -0.375 0.171875 -1.140625l0 -0.421875zm2.0531006 5.96875l0 -0.8125l7.578125 0l0 0.8125l-7.578125 0zm9.131226 -2.578125l0 -1.296875l1.296875 0l0 1.296875l-1.296875 0zm4.34375 0l0 -1.296875l1.296875 0l0 1.296875l-1.296875 0zm4.328125 0l0 -1.296875l1.296875 0l0 1.296875l-1.296875 0zm6.1875 2.734375q-0.953125 -1.1875 -1.609375 -2.78125q-0.65625 -1.609375 -0.65625 -3.328125q0 -1.5 0.5 -2.890625q0.5625 -1.609375 1.765625 -3.203125l0.8125 0q-0.765625 1.328125 -1.015625 1.890625q-0.390625 0.875 -0.609375 1.828125q-0.265625 1.1875 -0.265625 2.390625q0 3.046875 1.890625 6.09375l-0.8125 0zm2.5789948 -2.734375l0 -1.296875l1.296875 0l0 1.296875l-1.296875 0zm3.7029877 0l0 -1.296875l1.296875 0l0 1.296875l-1.296875 0zm3.7029877 0l0 -1.296875l1.296875 0l0 1.296875l-1.296875 0zm4.1248627 2.734375l-0.828125 0q1.90625 -3.046875 1.90625 -6.09375q0 -1.203125 -0.28125 -2.375q-0.203125 -0.953125 -0.59375 -1.828125q-0.25 -0.5625 -1.03125 -1.90625l0.828125 0q1.1875 1.59375 1.765625 3.203125q0.484375 1.390625 0.484375 2.890625q0 1.71875 -0.65625 3.328125q-0.65625 1.59375 -1.59375 2.78125z" fill-rule="nonzero"></path><path fill="#9fc5e8" d="m296.0 128.53937l128.0 0l0 56.0l-128.0 0z" fill-rule="nonzero"></path><path stroke="#000000" stroke-width="2.0" stroke-linejoin="round" stroke-linecap="butt" d="m296.0 128.53937l128.0 0l0 56.0l-128.0 0z" fill-rule="nonzero"></path><path fill="#000000" d="m344.20776 158.69374l1.796875 0.453125q-0.5625 2.21875 -2.03125 3.390625q-1.46875 1.15625 -3.59375 1.15625q-2.203125 0 -3.578125 -0.890625q-1.375 -0.90625 -2.09375 -2.59375q-0.71875 -1.703125 -0.71875 -3.65625q0 -2.125 0.796875 -3.703125q0.8125 -1.578125 2.3125 -2.390625q1.5 -0.828125 3.296875 -0.828125q2.046875 0 3.4375 1.046875q1.390625 1.03125 1.9375 2.90625l-1.765625 0.421875q-0.46875 -1.484375 -1.375 -2.15625q-0.90625 -0.6875 -2.265625 -0.6875q-1.5625 0 -2.625 0.75q-1.046875 0.75 -1.484375 2.03125q-0.421875 1.265625 -0.421875 2.609375q0 1.734375 0.5 3.03125q0.515625 1.28125 1.578125 1.921875q1.078125 0.640625 2.3125 0.640625q1.515625 0 2.5625 -0.859375q1.046875 -0.875 1.421875 -2.59375zm9.988586 3.546875q-0.9375 0.796875 -1.796875 1.125q-0.859375 0.3125 -1.84375 0.3125q-1.609375 0 -2.484375 -0.78125q-0.875 -0.796875 -0.875 -2.03125q0 -0.734375 0.328125 -1.328125q0.328125 -0.59375 0.859375 -0.953125q0.53125 -0.359375 1.203125 -0.546875q0.5 -0.140625 1.484375 -0.25q2.03125 -0.25 2.984375 -0.578125q0 -0.34375 0 -0.4375q0 -1.015625 -0.46875 -1.4375q-0.640625 -0.5625 -1.90625 -0.5625q-1.171875 0 -1.734375 0.40625q-0.5625 0.40625 -0.828125 1.46875l-1.640625 -0.234375q0.234375 -1.046875 0.734375 -1.6875q0.515625 -0.640625 1.46875 -0.984375q0.96875 -0.359375 2.25 -0.359375q1.265625 0 2.046875 0.296875q0.78125 0.296875 1.15625 0.75q0.375 0.453125 0.515625 1.140625q0.09375 0.421875 0.09375 1.53125l0 2.234375q0 2.328125 0.09375 2.953125q0.109375 0.609375 0.4375 1.171875l-1.75 0q-0.265625 -0.515625 -0.328125 -1.21875zm-0.140625 -3.71875q-0.90625 0.359375 -2.734375 0.625q-1.03125 0.140625 -1.453125 0.328125q-0.421875 0.1875 -0.65625 0.546875q-0.234375 0.359375 -0.234375 0.796875q0 0.671875 0.5 1.125q0.515625 0.4375 1.484375 0.4375q0.96875 0 1.71875 -0.421875q0.75 -0.4375 1.109375 -1.15625q0.265625 -0.578125 0.265625 -1.671875l0 -0.609375zm10.516327 1.328125l1.640625 0.21875q-0.265625 1.6875 -1.375 2.65625q-1.109375 0.953125 -2.734375 0.953125q-2.015625 0 -3.25 -1.3125q-1.21875 -1.328125 -1.21875 -3.796875q0 -1.59375 0.515625 -2.78125q0.53125 -1.203125 1.609375 -1.796875q1.09375 -0.609375 2.359375 -0.609375q1.609375 0 2.625 0.8125q1.015625 0.8125 1.3125 2.3125l-1.625 0.25q-0.234375 -1.0 -0.828125 -1.5q-0.59375 -0.5 -1.421875 -0.5q-1.265625 0 -2.0625 0.90625q-0.78125 0.90625 -0.78125 2.859375q0 1.984375 0.765625 2.890625q0.765625 0.890625 1.984375 0.890625q0.984375 0 1.640625 -0.59375q0.65625 -0.609375 0.84375 -1.859375zm2.890625 3.609375l0 -13.59375l1.671875 0l0 4.875q1.171875 -1.359375 2.953125 -1.359375q1.09375 0 1.890625 0.4375q0.8125 0.421875 1.15625 1.1875q0.359375 0.765625 0.359375 2.203125l0 6.25l-1.671875 0l0 -6.25q0 -1.25 -0.546875 -1.8125q-0.546875 -0.578125 -1.53125 -0.578125q-0.75 0 -1.40625 0.390625q-0.640625 0.375 -0.921875 1.046875q-0.28125 0.65625 -0.28125 1.8125l0 5.390625l-1.671875 0zm17.125702 -3.171875l1.71875 0.21875q-0.40625 1.5 -1.515625 2.34375q-1.09375 0.828125 -2.8125 0.828125q-2.15625 0 -3.421875 -1.328125q-1.265625 -1.328125 -1.265625 -3.734375q0 -2.484375 1.265625 -3.859375q1.28125 -1.375 3.328125 -1.375q1.984375 0 3.234375 1.34375q1.25 1.34375 1.25 3.796875q0 0.140625 -0.015625 0.4375l-7.34375 0q0.09375 1.625 0.921875 2.484375q0.828125 0.859375 2.0625 0.859375q0.90625 0 1.546875 -0.46875q0.65625 -0.484375 1.046875 -1.546875zm-5.484375 -2.703125l5.5 0q-0.109375 -1.234375 -0.625 -1.859375q-0.796875 -0.96875 -2.078125 -0.96875q-1.140625 0 -1.9375 0.78125q-0.78125 0.765625 -0.859375 2.046875z" fill-rule="nonzero"></path><path fill="#ffe599" d="m8.0 40.0l152.0 0l0 144.0l-152.0 0z" fill-rule="nonzero"></path><path stroke="#000000" stroke-width="2.0" stroke-linejoin="round" stroke-linecap="butt" d="m8.0 40.0l152.0 0l0 144.0l-152.0 0z" fill-rule="nonzero"></path><path fill="#000000" d="m32.48432 114.545l1.6875 -0.140625q0.125 1.015625 0.5625 1.671875q0.4375 0.65625 1.359375 1.0625q0.9375 0.40625 2.09375 0.40625q1.03125 0 1.8125 -0.3125q0.796875 -0.3125 1.1875 -0.84375q0.390625 -0.53125 0.390625 -1.15625q0 -0.640625 -0.375 -1.109375q-0.375 -0.484375 -1.234375 -0.8125q-0.546875 -0.21875 -2.421875 -0.65625q-1.875 -0.453125 -2.625 -0.859375q-0.96875 -0.515625 -1.453125 -1.265625q-0.46875 -0.75 -0.46875 -1.6875q0 -1.03125 0.578125 -1.921875q0.59375 -0.90625 1.703125 -1.359375q1.125 -0.46875 2.5 -0.46875q1.515625 0 2.671875 0.484375q1.15625 0.484375 1.765625 1.4375q0.625 0.9375 0.671875 2.140625l-1.71875 0.125q-0.140625 -1.28125 -0.953125 -1.9375q-0.796875 -0.671875 -2.359375 -0.671875q-1.625 0 -2.375 0.609375q-0.75 0.59375 -0.75 1.4375q0 0.734375 0.53125 1.203125q0.515625 0.46875 2.703125 0.96875q2.203125 0.5 3.015625 0.875q1.1875 0.546875 1.75 1.390625q0.578125 0.828125 0.578125 1.921875q0 1.09375 -0.625 2.0625q-0.625 0.953125 -1.796875 1.484375q-1.15625 0.53125 -2.609375 0.53125q-1.84375 0 -3.09375 -0.53125q-1.25 -0.546875 -1.96875 -1.625q-0.703125 -1.078125 -0.734375 -2.453125zm12.209198 -0.546875q0 -2.734375 1.53125 -4.0625q1.265625 -1.09375 3.09375 -1.09375q2.03125 0 3.3125 1.34375q1.296875 1.328125 1.296875 3.671875q0 1.90625 -0.578125 3.0q-0.5625 1.078125 -1.65625 1.6875q-1.078125 0.59375 -2.375 0.59375q-2.0625 0 -3.34375 -1.328125q-1.28125 -1.328125 -1.28125 -3.8125zm1.71875 0q0 1.890625 0.828125 2.828125q0.828125 0.9375 2.078125 0.9375q1.25 0 2.0625 -0.9375q0.828125 -0.953125 0.828125 -2.890625q0 -1.828125 -0.828125 -2.765625q-0.828125 -0.9375 -2.0625 -0.9375q-1.25 0 -2.078125 0.9375q-0.828125 0.9375 -0.828125 2.828125zm15.735092 4.921875l0 -1.453125q-1.140625 1.671875 -3.125 1.671875q-0.859375 0 -1.625 -0.328125q-0.75 -0.34375 -1.125 -0.84375q-0.359375 -0.5 -0.515625 -1.234375q-0.09375 -0.5 -0.09375 -1.5625l0 -6.109375l1.671875 0l0 5.46875q0 1.3125 0.09375 1.765625q0.15625 0.65625 0.671875 1.03125q0.515625 0.375 1.265625 0.375q0.75 0 1.40625 -0.375q0.65625 -0.390625 0.921875 -1.046875q0.28125 -0.671875 0.28125 -1.9375l0 -5.28125l1.671875 0l0 9.859375l-1.5 0zm3.9069672 0l0 -9.859375l1.5 0l0 1.5q0.578125 -1.046875 1.0625 -1.375q0.484375 -0.34375 1.078125 -0.34375q0.84375 0 1.71875 0.546875l-0.578125 1.546875q-0.609375 -0.359375 -1.234375 -0.359375q-0.546875 0 -0.984375 0.328125q-0.421875 0.328125 -0.609375 0.90625q-0.28125 0.890625 -0.28125 1.953125l0 5.15625l-1.671875 0zm12.665802 -3.609375l1.640625 0.21875q-0.265625 1.6875 -1.375 2.65625q-1.109375 0.953125 -2.734375 0.953125q-2.015625 0 -3.25 -1.3125q-1.21875 -1.328125 -1.21875 -3.796875q0 -1.59375 0.515625 -2.78125q0.53125 -1.203125 1.609375 -1.796875q1.09375 -0.609375 2.359375 -0.609375q1.609375 0 2.625 0.8125q1.015625 0.8125 1.3125 2.3125l-1.625 0.25q-0.234375 -1.0 -0.828125 -1.5q-0.59375 -0.5 -1.421875 -0.5q-1.265625 0 -2.0625 0.90625q-0.78125 0.90625 -0.78125 2.859375q0 1.984375 0.765625 2.890625q0.765625 0.890625 1.984375 0.890625q0.984375 0 1.640625 -0.59375q0.65625 -0.609375 0.84375 -1.859375zm9.640625 0.4375l1.71875 0.21875q-0.40625 1.5 -1.515625 2.34375q-1.09375 0.828125 -2.8125 0.828125q-2.15625 0 -3.421875 -1.328125q-1.265625 -1.328125 -1.265625 -3.734375q0 -2.484375 1.265625 -3.859375q1.28125 -1.375 3.328125 -1.375q1.984375 0 3.234375 1.34375q1.25 1.34375 1.25 3.796875q0 0.140625 -0.015625 0.4375l-7.34375 0q0.09375 1.625 0.921875 2.484375q0.828125 0.859375 2.0625 0.859375q0.90625 0 1.546875 -0.46875q0.65625 -0.484375 1.046875 -1.546875zm-5.484375 -2.703125l5.5 0q-0.109375 -1.234375 -0.625 -1.859375q-0.796875 -0.96875 -2.078125 -0.96875q-1.140625 0 -1.9375 0.78125q-0.78125 0.765625 -0.859375 2.046875zm20.730896 2.265625l1.640625 0.21875q-0.265625 1.6875 -1.375 2.65625q-1.109375 0.953125 -2.734375 0.953125q-2.015625 0 -3.25 -1.3125q-1.21875 -1.328125 -1.21875 -3.796875q0 -1.59375 0.515625 -2.78125q0.53125 -1.203125 1.609375 -1.796875q1.09375 -0.609375 2.359375 -0.609375q1.609375 0 2.625 0.8125q1.015625 0.8125 1.3125 2.3125l-1.625 0.25q-0.234375 -1.0 -0.828125 -1.5q-0.59375 -0.5 -1.421875 -0.5q-1.265625 0 -2.0625 0.90625q-0.78125 0.90625 -0.78125 2.859375q0 1.984375 0.765625 2.890625q0.765625 0.890625 1.984375 0.890625q0.984375 0 1.640625 -0.59375q0.65625 -0.609375 0.84375 -1.859375zm2.265625 -1.3125q0 -2.734375 1.53125 -4.0625q1.265625 -1.09375 3.09375 -1.09375q2.03125 0 3.3125 1.34375q1.296875 1.328125 1.296875 3.671875q0 1.90625 -0.578125 3.0q-0.5625 1.078125 -1.65625 1.6875q-1.078125 0.59375 -2.375 0.59375q-2.0625 0 -3.34375 -1.328125q-1.28125 -1.328125 -1.28125 -3.8125zm1.71875 0q0 1.890625 0.828125 2.828125q0.828125 0.9375 2.078125 0.9375q1.25 0 2.0625 -0.9375q0.828125 -0.953125 0.828125 -2.890625q0 -1.828125 -0.828125 -2.765625q-0.828125 -0.9375 -2.0625 -0.9375q-1.25 0 -2.078125 0.9375q-0.828125 0.9375 -0.828125 2.828125zm15.672592 4.921875l0 -1.25q-0.9375 1.46875 -2.75 1.46875q-1.171875 0 -2.171875 -0.640625q-0.984375 -0.65625 -1.53125 -1.8125q-0.53125 -1.171875 -0.53125 -2.6875q0 -1.46875 0.484375 -2.671875q0.5 -1.203125 1.46875 -1.84375q0.984375 -0.640625 2.203125 -0.640625q0.890625 0 1.578125 0.375q0.703125 0.375 1.140625 0.984375l0 -4.875l1.65625 0l0 13.59375l-1.546875 0zm-5.28125 -4.921875q0 1.890625 0.796875 2.828125q0.8125 0.9375 1.890625 0.9375q1.09375 0 1.859375 -0.890625q0.765625 -0.890625 0.765625 -2.734375q0 -2.015625 -0.78125 -2.953125q-0.78125 -0.953125 -1.921875 -0.953125q-1.109375 0 -1.859375 0.90625q-0.75 0.90625 -0.75 2.859375zm16.016335 1.75l1.71875 0.21875q-0.40625 1.5 -1.515625 2.34375q-1.09375 0.828125 -2.8125 0.828125q-2.15625 0 -3.4218674 -1.328125q-1.265625 -1.328125 -1.265625 -3.734375q0 -2.484375 1.265625 -3.859375q1.2812424 -1.375 3.3281174 -1.375q1.984375 0 3.234375 1.34375q1.25 1.34375 1.25 3.796875q0 0.140625 -0.015625 0.4375l-7.34375 0q0.09375 1.625 0.921875 2.484375q0.828125 0.859375 2.0625 0.859375q0.90625 0 1.546875 -0.46875q0.65625 -0.484375 1.046875 -1.546875zm-5.484375 -2.703125l5.5 0q-0.109375 -1.234375 -0.625 -1.859375q-0.796875 -0.96875 -2.078125 -0.96875q-1.140625 0 -1.9375 0.78125q-0.78125 0.765625 -0.859375 2.046875z" fill-rule="nonzero"></path><path fill="#d5a6bd" d="m504.0 40.0l152.0 0l0 144.0l-152.0 0z" fill-rule="nonzero"></path><path stroke="#000000" stroke-width="2.0" stroke-linejoin="round" stroke-linecap="butt" d="m504.0 40.0l152.0 0l0 144.0l-152.0 0z" fill-rule="nonzero"></path><path fill="#000000" d="m541.07855 118.92l0 -13.59375l1.8125 0l0 5.578125l7.0625 0l0 -5.578125l1.796875 0l0 13.59375l-1.796875 0l0 -6.40625l-7.0625 0l0 6.40625l-1.8125 0zm19.644836 -1.21875q-0.9375 0.796875 -1.796875 1.125q-0.859375 0.3125 -1.84375 0.3125q-1.609375 0 -2.484375 -0.78125q-0.875 -0.796875 -0.875 -2.03125q0 -0.734375 0.328125 -1.328125q0.328125 -0.59375 0.859375 -0.953125q0.53125 -0.359375 1.203125 -0.546875q0.5 -0.140625 1.484375 -0.25q2.03125 -0.25 2.984375 -0.578125q0 -0.34375 0 -0.4375q0 -1.015625 -0.46875 -1.4375q-0.640625 -0.5625 -1.90625 -0.5625q-1.171875 0 -1.734375 0.40625q-0.5625 0.40625 -0.828125 1.46875l-1.640625 -0.234375q0.234375 -1.046875 0.734375 -1.6875q0.515625 -0.640625 1.46875 -0.984375q0.96875 -0.359375 2.25 -0.359375q1.265625 0 2.046875 0.296875q0.78125 0.296875 1.15625 0.75q0.375 0.453125 0.515625 1.140625q0.09375 0.421875 0.09375 1.53125l0 2.234375q0 2.328125 0.09375 2.953125q0.109375 0.609375 0.4375 1.171875l-1.75 0q-0.265625 -0.515625 -0.328125 -1.21875zm-0.140625 -3.71875q-0.90625 0.359375 -2.734375 0.625q-1.03125 0.140625 -1.453125 0.328125q-0.421875 0.1875 -0.65625 0.546875q-0.234375 0.359375 -0.234375 0.796875q0 0.671875 0.5 1.125q0.515625 0.4375 1.484375 0.4375q0.96875 0 1.71875 -0.421875q0.75 -0.4375 1.109375 -1.15625q0.265625 -0.578125 0.265625 -1.671875l0 -0.609375zm4.0632324 4.9375l0 -9.859375l1.5 0l0 1.5q0.578125 -1.046875 1.0625 -1.375q0.484375 -0.34375 1.078125 -0.34375q0.84375 0 1.71875 0.546875l-0.578125 1.546875q-0.609375 -0.359375 -1.234375 -0.359375q-0.546875 0 -0.984375 0.328125q-0.421875 0.328125 -0.609375 0.90625q-0.28125 0.890625 -0.28125 1.953125l0 5.15625l-1.671875 0zm12.6188965 0l0 -1.25q-0.9375 1.46875 -2.75 1.46875q-1.171875 0 -2.171875 -0.640625q-0.984375 -0.65625 -1.53125 -1.8125q-0.53125 -1.171875 -0.53125 -2.6875q0 -1.46875 0.484375 -2.671875q0.5 -1.203125 1.46875 -1.84375q0.984375 -0.640625 2.203125 -0.640625q0.890625 0 1.578125 0.375q0.703125 0.375 1.140625 0.984375l0 -4.875l1.65625 0l0 13.59375l-1.546875 0zm-5.28125 -4.921875q0 1.890625 0.796875 2.828125q0.8125 0.9375 1.890625 0.9375q1.09375 0 1.859375 -0.890625q0.765625 -0.890625 0.765625 -2.734375q0 -2.015625 -0.78125 -2.953125q-0.78125 -0.953125 -1.921875 -0.953125q-1.109375 0 -1.859375 0.90625q-0.75 0.90625 -0.75 2.859375zm11.094482 4.921875l-3.015625 -9.859375l1.71875 0l1.5625 5.6875l0.59375 2.125q0.03125 -0.15625 0.5 -2.03125l1.578125 -5.78125l1.71875 0l1.46875 5.71875l0.484375 1.890625l0.578125 -1.90625l1.6875 -5.703125l1.625 0l-3.078125 9.859375l-1.734375 0l-1.578125 -5.90625l-0.375 -1.671875l-2.0 7.578125l-1.734375 0zm18.082336 -1.21875q-0.9375 0.796875 -1.796875 1.125q-0.859375 0.3125 -1.84375 0.3125q-1.609375 0 -2.484375 -0.78125q-0.875 -0.796875 -0.875 -2.03125q0 -0.734375 0.328125 -1.328125q0.328125 -0.59375 0.859375 -0.953125q0.53125 -0.359375 1.203125 -0.546875q0.5 -0.140625 1.484375 -0.25q2.03125 -0.25 2.984375 -0.578125q0 -0.34375 0 -0.4375q0 -1.015625 -0.46875 -1.4375q-0.640625 -0.5625 -1.90625 -0.5625q-1.171875 0 -1.734375 0.40625q-0.5625 0.40625 -0.828125 1.46875l-1.640625 -0.234375q0.234375 -1.046875 0.734375 -1.6875q0.515625 -0.640625 1.46875 -0.984375q0.96875 -0.359375 2.25 -0.359375q1.265625 0 2.046875 0.296875q0.78125 0.296875 1.15625 0.75q0.375 0.453125 0.515625 1.140625q0.09375 0.421875 0.09375 1.53125l0 2.234375q0 2.328125 0.09375 2.953125q0.109375 0.609375 0.4375 1.171875l-1.75 0q-0.265625 -0.515625 -0.328125 -1.21875zm-0.140625 -3.71875q-0.90625 0.359375 -2.734375 0.625q-1.03125 0.140625 -1.453125 0.328125q-0.421875 0.1875 -0.65625 0.546875q-0.234375 0.359375 -0.234375 0.796875q0 0.671875 0.5 1.125q0.515625 0.4375 1.484375 0.4375q0.96875 0 1.71875 -0.421875q0.75 -0.4375 1.109375 -1.15625q0.265625 -0.578125 0.265625 -1.671875l0 -0.609375zm4.0631714 4.9375l0 -9.859375l1.5 0l0 1.5q0.578125 -1.046875 1.0625 -1.375q0.484375 -0.34375 1.078125 -0.34375q0.84375 0 1.71875 0.546875l-0.578125 1.546875q-0.609375 -0.359375 -1.234375 -0.359375q-0.546875 0 -0.984375 0.328125q-0.421875 0.328125 -0.609375 0.90625q-0.28125 0.890625 -0.28125 1.953125l0 5.15625l-1.671875 0zm12.9783325 -3.171875l1.71875 0.21875q-0.40625 1.5 -1.515625 2.34375q-1.09375 0.828125 -2.8125 0.828125q-2.15625 0 -3.421875 -1.328125q-1.265625 -1.328125 -1.265625 -3.734375q0 -2.484375 1.265625 -3.859375q1.28125 -1.375 3.328125 -1.375q1.984375 0 3.234375 1.34375q1.25 1.34375 1.25 3.796875q0 0.140625 -0.015625 0.4375l-7.34375 0q0.09375 1.625 0.921875 2.484375q0.828125 0.859375 2.0625 0.859375q0.90625 0 1.546875 -0.46875q0.65625 -0.484375 1.046875 -1.546875zm-5.484375 -2.703125l5.5 0q-0.109375 -1.234375 -0.625 -1.859375q-0.796875 -0.96875 -2.078125 -0.96875q-1.140625 0 -1.9375 0.78125q-0.78125 0.765625 -0.859375 2.046875z" fill-rule="nonzero"></path></g></svg>

